<?xml version="1.0" encoding="UTF-8"?>
<svg xmlns="http://www.w3.org/2000/svg" xmlns:xlink="http://www.w3.org/1999/xlink" viewBox="0 0 3000 3000">
  <defs>
    <style>
      .cls-1 {
        fill: none;
      }

      .cls-2 {
        fill: url(#Gradiente_sem_nome_49);
      }

      .cls-3 {
        fill: #1c1c1c;
      }

      .cls-4 {
        fill: #7a7a7a;
      }

      .cls-5 {
        fill: url(#Gradiente_sem_nome_9);
      }

      .cls-6 {
        fill: #1c9ca9;
      }

      .cls-7 {
        isolation: isolate;
      }

      .cls-8 {
        fill: url(#Gradiente_sem_nome_9-4);
      }

      .cls-8, .cls-9, .cls-10, .cls-11 {
        mix-blend-mode: multiply;
        opacity: .4;
      }

      .cls-9 {
        fill: url(#Gradiente_sem_nome_9-5);
      }

      .cls-10 {
        fill: url(#Gradiente_sem_nome_9-2);
      }

      .cls-11 {
        fill: url(#Gradiente_sem_nome_9-3);
      }

      .cls-12 {
        fill: #5aa8ff;
      }

      .cls-13 {
        fill: #e8e8e8;
      }
    </style>
    <linearGradient id="Gradiente_sem_nome_49" data-name="Gradiente sem nome 49" x1="17085.67" y1="16843.05" x2="17348.69" y2="16843.05" gradientTransform="translate(25605.68 426.91) rotate(135)" gradientUnits="userSpaceOnUse">
      <stop offset="0" stop-color="#007aff"/>
      <stop offset=".14" stop-color="#51a4ff"/>
      <stop offset=".27" stop-color="#9bcbff"/>
      <stop offset=".38" stop-color="#d1e7ff"/>
      <stop offset=".46" stop-color="#f2f8ff"/>
      <stop offset=".5" stop-color="#fff"/>
      <stop offset=".55" stop-color="#f7fcf8"/>
      <stop offset=".63" stop-color="#e1f6e6"/>
      <stop offset=".73" stop-color="#bdecc9"/>
      <stop offset=".84" stop-color="#8bdfa0"/>
      <stop offset=".96" stop-color="#4dcd6d"/>
      <stop offset="1" stop-color="#34c759"/>
    </linearGradient>
    <linearGradient id="Gradiente_sem_nome_9" data-name="Gradiente sem nome 9" x1="916.07" y1="1018.05" x2="2126.84" y2="1018.05" gradientUnits="userSpaceOnUse">
      <stop offset=".25" stop-color="#257fd8"/>
      <stop offset=".71" stop-color="#2fa44a"/>
    </linearGradient>
    <linearGradient id="Gradiente_sem_nome_9-2" data-name="Gradiente sem nome 9" x1="1491.25" y1="895.04" x2="1521.67" y2="895.04" xlink:href="#Gradiente_sem_nome_9"/>
    <linearGradient id="Gradiente_sem_nome_9-3" data-name="Gradiente sem nome 9" x1="1424.04" y1="962.03" x2="1454.2" y2="962.03" xlink:href="#Gradiente_sem_nome_9"/>
    <linearGradient id="Gradiente_sem_nome_9-4" data-name="Gradiente sem nome 9" x1="1521.53" y1="1135.34" x2="1551.59" y2="1135.34" xlink:href="#Gradiente_sem_nome_9"/>
    <linearGradient id="Gradiente_sem_nome_9-5" data-name="Gradiente sem nome 9" x1="1588.69" y1="1067.6" x2="1618.73" y2="1067.6" xlink:href="#Gradiente_sem_nome_9"/>
  </defs>
  <g class="cls-7">
    <g id="Camada_1" data-name="Camada 1">
      <g>
        <g>
          <circle class="cls-3" cx="1521.46" cy="1010.37" r="655.07"/>
          <rect class="cls-2" x="1428.08" y="598.08" width="186.75" height="186.75" rx="1.32" ry="1.32" transform="translate(934.56 -873.31) rotate(45)"/>
          <g>
            <path class="cls-6" d="M1247.27,1433.95c-.33,12.8,10.03,24.9,22.89,25.23,13.9.36,23.82-11.21,24.16-24.02.33-12.86-9.01-23.82-22.91-24.18-12.86-.33-23.8,10.11-24.13,22.96Z"/>
            <path class="cls-6" d="M1773.34,1474.53c16.34.42,29.26-11.85,29.68-28.19.39-15.1-11.88-27.96-28.22-28.38-15.11-.39-28.04,11.82-28.43,26.92-.42,16.35,11.85,29.27,26.97,29.66Z"/>
            <path class="cls-6" d="M1650.09,1558.28c16.05.41,28.62-11.59,29-26.36.41-15.99-11.52-28.62-27.57-29.03-13.52-.35-27.34,11.62-27.75,27.6-.38,14.77,12.81,27.44,26.32,27.79Z"/>
            <path class="cls-6" d="M1521.54,1474.69c13.17.34,25.59-10.36,25.93-23.53.34-13.23-11.48-25.62-24.65-25.96-13.23-.34-24.56,11.46-24.9,24.69-.34,13.17,10.39,24.47,23.62,24.81Z"/>
            <path class="cls-6" d="M1396.12,1575.43c15.05.39,27.91-11.83,28.29-26.82.39-15.05-11.79-29.12-26.84-29.51-15.05-.39-27.94,13.04-28.33,28.09-.39,14.99,11.83,27.85,26.87,28.24Z"/>
            <g>
              <g>
                <path class="cls-13" d="M1646.76,1505.23l-17.18.07-.48-120.38-39.96-50.2-.57-143.11c5.44-.02,10.89.97,16.38,1.91l.53,132.27,40.76,50.14.52,129.29Z"/>
                <polygon class="cls-13" points="1447.57 1191.92 1448.2 1349.82 1407.83 1400.34 1408.28 1511.84 1408.31 1519.75 1391.93 1519.81 1391.89 1509.94 1391.42 1391.49 1431.02 1340.01 1430.44 1194.97 1447.57 1191.92"/>
                <path class="cls-13" d="M1531.13,1417.72l-17.18.07-.91-227.97c3.12-.98,6.24-.99,9.36-1,2.36,0,5.48-.02,7.81.93l.91,227.97Z"/>
                <path class="cls-13" d="M1744.87,1436.9l-51.75-64.94-.66-112.68c5.44-.02,10.94,1.93,16.39,4.85l.61,98.9,41.58,52.12,5.47,6.92-11.63,14.84Z"/>
                <path class="cls-13" d="M1294.35,1422.33l-11.71-14.75,6.22-7.93,40.32-51.48-.54-90.15c5.48-2,11.68-4,17.16-4.98l.6,103.97-45.81,58.39-6.22,6.92Z"/>
                <path class="cls-13" d="M1437.41,1548.16c-.07-16.77-10-31.57-25.83-36.42-3.96-1.96-8.87-2.91-12.83-2.89-2.94.01-4.91.02-7.9,1-17.76,4.02-31.48,19.88-31.41,38.62.09,21.69,17.89,39.39,39.62,39.31,21.73-.09,38.44-17.93,38.35-39.62ZM1377.17,1548.4c-.05-11.85,9.79-22.73,21.64-22.77,11.85-.05,21.77,10.75,21.82,22.6.05,11.81-9.79,21.73-21.64,21.78s-21.77-9.79-21.82-21.6Z"/>
                <path class="cls-13" d="M1562.51,1449.03c-.07-17.78-12-33.54-28.78-37.42-3.95-.95-6.9-1.9-10.84-1.89-3.96.02-6.94.99-10.89,1.97-16.75,4.02-28.54,19.87-28.47,37.65.09,21.69,17.93,39.39,39.67,39.3,21.68-.09,39.39-17.93,39.31-39.62ZM1501.31,1449.27c-.05-11.85,9.79-22.74,21.65-22.78,11.8-.05,22.73,10.75,22.78,22.61.05,11.81-10.8,21.73-22.6,21.78-11.86.05-21.78-9.79-21.83-21.6Z"/>
                <path class="cls-13" d="M1685.4,1531.47c-.08-19.76-12.69-35.47-29.98-38.39-2.91.01-5.78-.93-8.69-.92-3.85.02-8.63.99-12.49,2.02-14.4,5.99-24.9,19.81-24.83,37.59.09,21.73,17.43,38.43,37.63,38.35,21.18-.08,38.45-16.92,38.36-38.65ZM1625.75,1531.71c-.05-12.82,10.47-22.74,21.04-22.78,12.54-.05,22.16,9.79,22.22,22.61.05,11.85-9.49,21.77-22.04,21.82-10.57.04-21.17-9.79-21.22-21.65Z"/>
                <path class="cls-13" d="M1816.57,1447.12c-.09-21.68-17.93-38.38-39.62-38.3-7.9.03-14.83,1.99-20.7,5.96-5.91,3.98-10.85,9.92-13.77,15.86-2.97,4.93-3.91,10.86-3.88,16.78.09,21.73,16.93,39.4,38.66,39.31,21.68-.09,39.39-17.89,39.31-39.62ZM1755.37,1447.36c-.05-11.85,9.79-21.72,21.65-21.77,12.82-.05,22.74,9.74,22.78,21.59.05,12.82-9.79,22.74-22.61,22.79-11.85.05-21.77-9.79-21.82-22.61Z"/>
                <path class="cls-13" d="M1310.3,1433.14c-.02-5.93-1.99-12.86-4.99-17.76-2.92-6.88-8.92-11.82-14.81-15.75-5.99-2.92-12.84-5.88-19.78-5.85-21.69.09-39.44,17.94-39.36,39.67.09,21.68,17.98,39.39,39.67,39.31,21.68-.09,39.34-17.94,39.26-39.62ZM1249.2,1433.39c-.05-11.85,9.74-21.77,21.6-21.82,12.81-.05,21.72,9.79,21.77,21.65.05,11.81-8.78,22.73-21.59,22.78-11.86.05-21.73-10.8-21.78-22.61Z"/>
              </g>
              <circle class="cls-1" cx="1497.67" cy="1820.95" r="589.95"/>
            </g>
          </g>
          <rect class="cls-13" x="1512.87" y="1135.11" width="17.18" height="95.76"/>
          <g>
            <path class="cls-5" d="M1834.02,725.23c-117.83,0-220.34,79.6-312.38,167.65-91.31-87.91-192.41-167.65-312.75-167.65-161.46,0-292.82,131.36-292.82,292.82s131.36,292.82,292.82,292.82c118.75,0,221.1-83.71,312.64-173.37,86.29,84.89,188.48,173.37,312.49,173.37,161.46,0,292.82-131.36,292.82-292.82s-131.36-292.82-292.82-292.82ZM1834.02,1286.78c-114.88,0-212.53-84.76-295.37-166.23,12.67-12.66,25.16-25.34,37.43-37.83,4.21-4.28,8.42-8.55,12.6-12.8,70.75,68.57,153.29,138.59,245.33,138.59,105.03,0,190.47-85.44,190.47-190.47s-85.44-190.47-190.47-190.47c-115.79,0-218.11,103.78-317.08,204.16-97.35,98.74-198.02,200.85-308.05,200.85-118.3,0-214.55-96.25-214.55-214.55,0-110.28,83.65-201.35,190.82-213.19,4.71,8.55,13.7,14.43,24.15,14.43,15.25,0,27.66-12.4,27.66-27.66s-12.41-27.66-27.66-27.66c-11.4,0-21.19,6.93-25.42,16.79-119.87,12.55-213.63,114.15-213.63,237.29,0,131.58,107.05,238.63,238.63,238.63,120.11,0,224.38-105.76,325.21-208.04,95.48-96.84,194.2-196.98,299.92-196.98,91.74,0,166.39,74.64,166.39,166.39s-74.65,166.38-166.39,166.38c-75.35,0-146.22-52.32-228.36-131.65,78.59-79,153.66-146.93,228.36-146.93,61.87,0,112.2,50.33,112.2,112.2s-50.33,112.2-112.2,112.2c-37.66,0-81.22-21.35-135.83-66.7.57-2.21.97-4.49.97-6.88,0-15.25-12.41-27.66-27.66-27.66s-27.67,12.41-27.67,27.66,12.42,27.66,27.67,27.66c3.97,0,7.73-.88,11.14-2.39,59.87,49.82,107.21,72.4,151.37,72.4,75.15,0,136.28-61.14,136.28-136.28s-61.14-136.28-136.28-136.28c-94.12,0-182.04,89.42-275.1,184.08-106.8,108.62-217.23,220.94-350.03,220.94-148.18,0-268.73-120.55-268.73-268.73s120.55-268.74,268.73-268.74c111.61,0,207.94,76.16,295.43,160.32-17.01,16.66-33.67,33.45-50.01,49.92-.04.04-.08.08-.12.12-70.02-66.64-153.25-132.09-245.31-132.09-105.03,0-190.47,85.44-190.47,190.47s85.44,190.47,190.47,190.47,203.06-96.5,305.76-198.66c101.98-101.45,207.43-206.36,319.37-206.36,118.3,0,214.55,96.25,214.55,214.55,0,110.24-83.59,201.29-190.73,213.18-4.75-8.38-13.65-14.11-23.96-14.11-15.25,0-27.66,12.4-27.66,27.66s12.4,27.66,27.66,27.66c11.54,0,21.43-7.11,25.57-17.17,119.66-12.74,213.2-114.24,213.2-237.23,0-131.58-107.06-238.63-238.63-238.63-121.87,0-230.91,108.47-336.36,213.37-99.07,98.56-192.65,191.65-288.77,191.65s-166.38-74.64-166.38-166.38,74.64-166.39,166.38-166.39c83.54,0,161.88,61.88,228.34,125.1-80.72,81.1-157.16,153.48-228.34,153.48-61.87,0-112.2-50.33-112.2-112.2s50.33-112.2,112.2-112.2c40.05,0,84.13,20.12,137.45,62.86-.53,2.15-.91,4.36-.91,6.67,0,15.25,12.41,27.66,27.67,27.66s27.66-12.41,27.66-27.66-12.41-27.66-27.66-27.66c-4.05,0-7.88.93-11.36,2.5-58.02-46.55-107.03-68.46-152.85-68.46-75.15,0-136.28,61.14-136.28,136.28s61.13,136.28,136.28,136.28c86.22,0,171.86-86.38,262.53-177.82,105.59-106.49,225.28-227.2,362.6-227.2,148.18,0,268.73,120.55,268.73,268.74s-120.55,268.73-268.73,268.73ZM1199.71,791.64c0-5.29,4.31-9.6,9.6-9.6s9.6,4.31,9.6,9.6-4.31,9.59-9.6,9.59-9.6-4.3-9.6-9.59ZM1671.51,1066.26c-5.3,0-9.6-4.3-9.6-9.59s4.31-9.6,9.6-9.6,9.6,4.3,9.6,9.6-4.3,9.59-9.6,9.59ZM1843.49,1244.79c0,5.29-4.31,9.6-9.6,9.6s-9.6-4.3-9.6-9.6,4.31-9.6,9.6-9.6,9.6,4.3,9.6,9.6ZM1373.1,965.79c5.29,0,9.6,4.3,9.6,9.59s-4.3,9.6-9.6,9.6-9.6-4.3-9.6-9.6,4.31-9.59,9.6-9.59Z"/>
            <path class="cls-10" d="M1521.67,892.9c-4.35-4.19-8.72-8.35-13.11-12.49-5.81,5.57-11.56,11.18-17.3,16.79,4.39,4.13,8.76,8.29,13.11,12.46,5.73-5.61,11.48-11.21,17.31-16.77Z"/>
            <path class="cls-11" d="M1437.22,976.76c5.65-5.67,11.3-11.36,16.98-17.09-4.34-4.13-8.73-8.25-13.17-12.36-5.69,5.74-11.35,11.42-16.99,17.1,4.45,4.1,8.84,8.23,13.18,12.36Z"/>
            <path class="cls-8" d="M1551.59,1133.17c-4.35-4.2-8.66-8.41-12.93-12.61-5.66,5.66-11.37,11.31-17.12,16.94,4.27,4.2,8.58,8.41,12.93,12.63,5.75-5.64,11.46-11.29,17.12-16.95Z"/>
            <path class="cls-9" d="M1588.69,1069.92c4.3,4.17,8.65,8.34,13.03,12.51,5.69-5.77,11.36-11.51,17-17.18-4.32-4.08-8.68-8.24-13.07-12.47-5.63,5.66-11.29,11.39-16.97,17.14Z"/>
          </g>
        </g>
        <g>
          <path class="cls-12" d="M795.15,2221.22h-49.94c-24.13,0-42.77-6.41-55.89-19.24-13.14-12.83-19.7-31.3-19.7-55.44v-145.23c0-24.12,6.56-42.61,19.7-55.44,13.13-12.83,31.76-19.24,55.89-19.24h49.94c23.82,0,42.38,6.49,55.66,19.47,13.29,12.99,19.93,31.38,19.93,55.21v21.53c0,6.72-3.36,10.08-10.08,10.08h-38.48c-6.41,0-9.62-3.36-9.62-10.08v-18.78c0-9.77-2.06-16.72-6.19-20.85-4.12-4.12-11.07-6.18-20.85-6.18h-31.15c-9.47,0-16.26,2.06-20.39,6.18-4.12,4.12-6.19,11.08-6.19,20.85v139.74c0,9.78,2.06,16.72,6.19,20.85,4.12,4.12,10.92,6.18,20.39,6.18h31.15c9.77,0,16.72-2.06,20.85-6.18,4.12-4.12,6.19-11.07,6.19-20.85v-18.78c0-6.71,3.21-10.08,9.62-10.08h38.48c6.71,0,10.08,3.36,10.08,10.08v21.53c0,23.82-6.64,42.23-19.93,55.21-13.29,12.99-31.84,19.47-55.66,19.47Z"/>
          <path class="cls-12" d="M1027.89,2221.22h-40.77c-24.13,0-42.77-6.41-55.89-19.24-13.14-12.83-19.7-31.3-19.7-55.44v-84.3c0-24.12,6.56-42.61,19.7-55.44,13.13-12.83,31.76-19.24,55.89-19.24h40.77c23.82,0,42.38,6.49,55.67,19.47,13.29,12.99,19.93,31.38,19.93,55.21v84.3c0,23.82-6.64,42.23-19.93,55.21-13.29,12.99-31.84,19.47-55.67,19.47ZM995.82,2171.28h23.37c9.77,0,16.72-1.98,20.85-5.96,4.12-3.97,6.19-10.84,6.19-20.62v-80.63c0-9.77-2.06-16.64-6.19-20.62-4.12-3.97-11.07-5.96-20.85-5.96h-23.37c-9.78,0-16.65,1.99-20.62,5.96s-5.96,10.84-5.96,20.62v80.63c0,9.78,1.98,16.65,5.96,20.62,3.97,3.97,10.84,5.96,20.62,5.96Z"/>
          <path class="cls-12" d="M1197.85,2221.22h-38.94c-6.41,0-9.62-3.21-9.62-9.62v-214.41c0-6.41,3.21-9.62,9.62-9.62h38.94c6.41,0,9.62,3.21,9.62,9.62v15.12h1.83c6.71-16.49,21.68-24.74,44.9-24.74h14.66c47.95,0,71.93,24.9,71.93,74.68v149.36c0,6.41-3.36,9.62-10.08,9.62h-38.48c-6.41,0-9.62-3.21-9.62-9.62v-146.61c0-9.77-2.06-16.72-6.19-20.85-4.12-4.12-11.07-6.18-20.85-6.18h-16.49c-21.08,0-31.61,11.61-31.61,34.82v138.82c0,6.41-3.21,9.62-9.62,9.62Z"/>
          <path class="cls-12" d="M1393.94,2037.96h-18.33c-3.67,0-6.19-.61-7.56-1.83-1.38-1.22-2.06-3.67-2.06-7.33v-31.61c0-6.41,3.21-9.62,9.62-9.62h18.33c3.36,0,5.04-1.67,5.04-5.04v-43.52c0-6.41,3.36-9.62,10.08-9.62h38.48c6.41,0,9.62,3.21,9.62,9.62v43.52c0,3.36,1.83,5.04,5.5,5.04h35.74c6.41,0,9.62,3.21,9.62,9.62v31.61c0,3.36-.69,5.73-2.06,7.1-1.38,1.37-3.89,2.06-7.56,2.06h-35.74c-3.67,0-5.5,1.68-5.5,5.04v101.25c0,9.47,2.13,16.26,6.41,20.39,4.27,4.12,11.3,6.18,21.08,6.18h18.33c6.41,0,9.62,3.21,9.62,9.62v31.61c0,3.36-.69,5.73-2.06,7.1s-3.89,2.06-7.56,2.06h-27.95c-24.13,0-42.84-6.41-56.12-19.24s-19.93-31.15-19.93-54.98v-104c0-3.36-1.68-5.04-5.04-5.04Z"/>
          <path class="cls-12" d="M1552.91,2211.6v-214.41c0-6.41,3.05-9.62,9.16-9.62h39.4c6.41,0,9.62,3.21,9.62,9.62v214.41c0,3.97-.69,6.57-2.06,7.79-1.37,1.22-3.74,1.83-7.1,1.83h-39.4c-6.41,0-9.62-3.21-9.62-9.62ZM1597.35,1899.14h44.9c3.36,0,5.5.92,6.41,2.75.92,1.83.3,3.97-1.83,6.41l-37.11,43.98c-3.36,3.97-7.64,5.96-12.83,5.96h-29.32c-6.11,0-7.64-3.21-4.58-9.62l20.62-40.77c2.75-5.8,7.33-8.71,13.74-8.71Z"/>
          <path class="cls-12" d="M1712.35,2221.22h-38.94c-6.41,0-9.62-3.21-9.62-9.62v-214.41c0-6.41,3.21-9.62,9.62-9.62h38.94c6.41,0,9.62,3.21,9.62,9.62v15.12h1.83c6.71-16.49,21.68-24.74,44.9-24.74h14.66c47.95,0,71.93,24.9,71.93,74.68v149.36c0,6.41-3.36,9.62-10.08,9.62h-38.48c-6.41,0-9.62-3.21-9.62-9.62v-146.61c0-9.77-2.06-16.72-6.18-20.85-4.12-4.12-11.07-6.18-20.85-6.18h-16.49c-21.08,0-31.61,11.61-31.61,34.82v138.82c0,6.41-3.21,9.62-9.62,9.62Z"/>
          <path class="cls-12" d="M1987.69,2221.22h-15.12c-23.52,0-41.31-6.41-53.37-19.24-12.07-12.83-18.1-31.3-18.1-55.44v-149.36c0-6.41,3.21-9.62,9.62-9.62h38.94c6.41,0,9.62,3.21,9.62,9.62v146.61c0,9.78,2.06,16.72,6.19,20.85,4.12,4.12,10.92,6.18,20.39,6.18h16.95c21.07,0,31.61-11.6,31.61-34.82v-138.82c0-6.41,3.21-9.62,9.62-9.62h38.48c6.71,0,10.08,3.21,10.08,9.62v214.41c0,6.41-3.37,9.62-10.08,9.62h-38.48c-6.41,0-9.62-3.21-9.62-9.62v-15.12h-1.83c-3.36,8.25-9.32,14.43-17.87,18.56-8.55,4.12-17.57,6.18-27.03,6.18Z"/>
          <path class="cls-12" d="M2254.79,2221.22h-40.78c-24.13,0-42.77-6.41-55.89-19.24-13.14-12.83-19.7-31.3-19.7-55.44v-84.3c0-24.12,6.56-42.61,19.7-55.44,13.13-12.83,31.76-19.24,55.89-19.24h40.78c23.82,0,42.38,6.49,55.66,19.47,13.29,12.99,19.93,31.38,19.93,55.21v84.3c0,23.82-6.64,42.23-19.93,55.21-13.29,12.99-31.84,19.47-55.66,19.47ZM2222.72,2171.28h23.37c9.77,0,16.72-1.98,20.85-5.96,4.12-3.97,6.18-10.84,6.18-20.62v-80.63c0-9.77-2.06-16.64-6.18-20.62-4.12-3.97-11.07-5.96-20.85-5.96h-23.37c-9.78,0-16.65,1.99-20.62,5.96s-5.96,10.84-5.96,20.62v80.63c0,9.78,1.98,16.65,5.96,20.62,3.97,3.97,10.84,5.96,20.62,5.96Z"/>
          <path class="cls-4" d="M777.55,2552.5h-15.86c-3.29,0-4.93-1.64-4.93-4.93v-195.95c0-2.11-1.18-3.17-3.52-3.17h-47.93c-3.52,0-5.29-1.64-5.29-4.93v-12.69c0-3.29,1.76-4.93,5.29-4.93h128.63c3.52,0,5.29,1.65,5.29,4.93v12.69c0,3.29-1.76,4.93-5.29,4.93h-47.93c-2.35,0-3.52,1.06-3.52,3.17v195.95c0,3.29-1.65,4.93-4.93,4.93Z"/>
          <path class="cls-4" d="M1003.09,2552.5h-74.71c-16.21,0-28.96-4.58-38.24-13.74-9.28-9.16-13.92-21.97-13.92-38.41v-75.42c0-16.44,4.64-29.25,13.92-38.41,9.28-9.16,22.03-13.74,38.24-13.74h29.6c16.21,0,28.9,4.58,38.06,13.74,9.16,9.16,13.74,21.97,13.74,38.41v44.76c0,3.52-1.65,5.29-4.93,5.29h-99.73c-2.35,0-3.52,1.06-3.52,3.17v21.5c0,20.44,9.87,30.66,29.6,30.66h71.89c3.29,0,4.93,1.65,4.93,4.93v12.69c0,3.06-1.65,4.58-4.93,4.58ZM905.12,2456.29h76.12c2.35,0,3.52-1.17,3.52-3.52v-27.14c0-20.2-9.87-30.31-29.6-30.31h-23.96c-19.74,0-29.6,10.1-29.6,30.31v27.14c0,2.35,1.17,3.52,3.52,3.52Z"/>
          <path class="cls-4" d="M1168.37,2534.88v13.04c0,3.06-1.65,4.58-4.93,4.58h-51.1c-16.21,0-28.96-4.58-38.24-13.74-9.28-9.16-13.92-21.97-13.92-38.41v-75.42c0-16.44,4.64-29.25,13.92-38.41,9.28-9.16,22.03-13.74,38.24-13.74h51.1c3.29,0,4.93,1.65,4.93,4.93v13.04c0,3.06-1.65,4.58-4.93,4.58h-48.28c-19.5,0-29.25,10.22-29.25,30.66v73.3c0,20.44,9.75,30.66,29.25,30.66h48.28c3.29,0,4.93,1.65,4.93,4.93Z"/>
          <path class="cls-4" d="M1235.68,2552.5h-15.86c-3.29,0-4.93-1.64-4.93-4.93v-169.87c0-3.29,1.64-4.93,4.93-4.93h15.86c3.29,0,4.93,1.65,4.93,4.93v13.74h1.41c5.87-12.45,17.85-18.68,35.95-18.68h19.74c15.97,0,28.43,4.58,37.36,13.74,8.93,9.16,13.39,21.97,13.39,38.41v122.64c0,3.29-1.65,4.93-4.93,4.93h-15.86c-3.29,0-4.93-1.64-4.93-4.93v-121.59c0-20.44-9.87-30.66-29.6-30.66h-19.74c-10.57,0-18.68,2.82-24.32,8.46s-8.46,13.63-8.46,23.96v119.82c0,3.29-1.65,4.93-4.93,4.93Z"/>
          <path class="cls-4" d="M1484.84,2552.5h-30.31c-16.21,0-28.96-4.58-38.24-13.74-9.28-9.16-13.92-21.97-13.92-38.41v-75.42c0-16.44,4.64-29.25,13.92-38.41,9.28-9.16,22.03-13.74,38.24-13.74h30.31c16.21,0,28.95,4.58,38.24,13.74,9.28,9.16,13.92,21.97,13.92,38.41v75.42c0,16.45-4.64,29.25-13.92,38.41-9.28,9.16-22.03,13.74-38.24,13.74ZM1457.35,2529.94h24.67c19.74,0,29.6-10.1,29.6-30.31v-74.01c0-20.2-9.87-30.31-29.6-30.31h-24.67c-19.74,0-29.6,10.1-29.6,30.31v74.01c0,20.21,9.87,30.31,29.6,30.31Z"/>
          <path class="cls-4" d="M1615.24,2552.5h-15.86c-3.29,0-4.93-1.64-4.93-4.93v-237.88c0-3.29,1.64-4.93,4.93-4.93h15.86c3.29,0,4.93,1.65,4.93,4.93v237.88c0,3.29-1.65,4.93-4.93,4.93Z"/>
          <path class="cls-4" d="M1760.08,2552.5h-30.31c-16.21,0-28.96-4.58-38.24-13.74-9.28-9.16-13.92-21.97-13.92-38.41v-75.42c0-16.44,4.64-29.25,13.92-38.41,9.28-9.16,22.03-13.74,38.24-13.74h30.31c16.21,0,28.95,4.58,38.24,13.74,9.28,9.16,13.92,21.97,13.92,38.41v75.42c0,16.45-4.64,29.25-13.92,38.41-9.28,9.16-22.03,13.74-38.24,13.74ZM1732.59,2529.94h24.67c19.74,0,29.6-10.1,29.6-30.31v-74.01c0-20.2-9.87-30.31-29.6-30.31h-24.67c-19.74,0-29.6,10.1-29.6,30.31v74.01c0,20.21,9.87,30.31,29.6,30.31Z"/>
          <path class="cls-4" d="M1935.94,2542.98h-19.74c-15.98,0-28.43-4.58-37.36-13.74-8.93-9.16-13.39-21.97-13.39-38.41v-65.9c0-16.44,4.64-29.25,13.92-38.41,9.28-9.16,22.03-13.74,38.24-13.74h76.47c3.29,0,4.93,1.65,4.93,4.93v174.8c0,16.21-4.64,28.95-13.92,38.24-9.28,9.28-22.03,13.92-38.24,13.92h-64.85c-3.52,0-5.29-1.65-5.29-4.93v-13.04c0-3.29,1.76-4.93,5.29-4.93h61.67c19.74,0,29.6-10.1,29.6-30.31v-27.14h-1.41c-6.11,12.46-18.09,18.68-35.95,18.68ZM1973.29,2488v-89.51c0-2.11-1.18-3.17-3.52-3.17h-48.99c-19.74,0-29.6,10.22-29.6,30.66v63.79c0,20.44,9.87,30.66,29.6,30.66h19.74c10.57,0,18.68-2.82,24.32-8.46s8.46-13.62,8.46-23.96Z"/>
          <path class="cls-4" d="M2059.99,2343.16v-33.13c0-3.29,1.53-4.93,4.58-4.93h16.21c3.29,0,4.93,1.65,4.93,4.93v33.13c0,3.29-1.65,4.93-4.93,4.93h-16.21c-3.06,0-4.58-1.64-4.58-4.93ZM2059.99,2547.56v-169.87c0-3.29,1.53-4.93,4.58-4.93h16.21c3.29,0,4.93,1.65,4.93,4.93v169.87c0,3.29-1.65,4.93-4.93,4.93h-15.86c-3.29,0-4.93-1.64-4.93-4.93Z"/>
          <path class="cls-4" d="M2213.64,2552.5h-18.33c-16.21,0-28.96-4.58-38.24-13.74-9.28-9.16-13.92-21.97-13.92-38.41v-75.42c0-16.44,4.64-29.25,13.92-38.41,9.28-9.16,22.03-13.74,38.24-13.74h76.48c3.29,0,4.93,1.65,4.93,4.93v169.87c0,3.29-1.65,4.93-4.93,4.93h-15.86c-3.29,0-4.93-1.64-4.93-4.93v-13.75h-1.41c-5.88,12.46-17.86,18.68-35.95,18.68ZM2251,2497.52v-99.03c0-2.11-1.18-3.17-3.52-3.17h-49.34c-19.5,0-29.25,10.22-29.25,30.66v73.3c0,20.44,9.75,30.66,29.25,30.66h20.09c10.57,0,18.68-2.82,24.32-8.46s8.46-13.62,8.46-23.96Z"/>
        </g>
      </g>
    </g>
  </g>
</svg>