<?xml version="1.0" encoding="UTF-8"?>
<svg xmlns="http://www.w3.org/2000/svg" xmlns:xlink="http://www.w3.org/1999/xlink" viewBox="0 0 3000 3000">
  <defs>
    <style>
      .cls-1 {
        fill: none;
      }

      .cls-2 {
        fill: #8299a1;
      }

      .cls-3 {
        fill: url(#Gradiente_sem_nome_49);
      }

      .cls-4 {
        fill: #1c1c1c;
      }

      .cls-5 {
        fill: url(#Gradiente_sem_nome_9);
      }

      .cls-6 {
        fill: #257fd8;
      }

      .cls-7 {
        fill: #2694ff;
      }

      .cls-8 {
        fill: #4d4d4d;
      }

      .cls-9 {
        isolation: isolate;
      }

      .cls-10 {
        fill: url(#Gradiente_sem_nome_9-4);
      }

      .cls-10, .cls-11, .cls-12, .cls-13 {
        mix-blend-mode: multiply;
        opacity: .4;
      }

      .cls-11 {
        fill: url(#Gradiente_sem_nome_9-5);
      }

      .cls-12 {
        fill: url(#Gradiente_sem_nome_9-2);
      }

      .cls-13 {
        fill: url(#Gradiente_sem_nome_9-3);
      }

      .cls-14 {
        fill: #e8e8e8;
      }
    </style>
    <linearGradient id="Gradiente_sem_nome_49" data-name="Gradiente sem nome 49" x1="11004.46" y1="22879.5" x2="11281.89" y2="22879.5" gradientTransform="translate(25613.13 8993.84) rotate(135)" gradientUnits="userSpaceOnUse">
      <stop offset="0" stop-color="#007aff"/>
      <stop offset=".14" stop-color="#51a4ff"/>
      <stop offset=".27" stop-color="#9bcbff"/>
      <stop offset=".38" stop-color="#d1e7ff"/>
      <stop offset=".46" stop-color="#f2f8ff"/>
      <stop offset=".5" stop-color="#fff"/>
      <stop offset=".55" stop-color="#f7fcf8"/>
      <stop offset=".63" stop-color="#e1f6e6"/>
      <stop offset=".73" stop-color="#bdecc9"/>
      <stop offset=".84" stop-color="#8bdfa0"/>
      <stop offset=".96" stop-color="#4dcd6d"/>
      <stop offset="1" stop-color="#34c759"/>
    </linearGradient>
    <linearGradient id="Gradiente_sem_nome_9" data-name="Gradiente sem nome 9" x1="917.05" y1="1039.42" x2="2193.87" y2="1039.42" gradientUnits="userSpaceOnUse">
      <stop offset=".25" stop-color="#257fd8"/>
      <stop offset=".71" stop-color="#2fa44a"/>
    </linearGradient>
    <linearGradient id="Gradiente_sem_nome_9-2" data-name="Gradiente sem nome 9" x1="1523.61" y1="909.69" x2="1555.68" y2="909.69" xlink:href="#Gradiente_sem_nome_9"/>
    <linearGradient id="Gradiente_sem_nome_9-3" data-name="Gradiente sem nome 9" x1="1452.73" y1="980.35" x2="1484.54" y2="980.35" xlink:href="#Gradiente_sem_nome_9"/>
    <linearGradient id="Gradiente_sem_nome_9-4" data-name="Gradiente sem nome 9" x1="1555.54" y1="1163.1" x2="1587.24" y2="1163.1" xlink:href="#Gradiente_sem_nome_9"/>
    <linearGradient id="Gradiente_sem_nome_9-5" data-name="Gradiente sem nome 9" x1="1626.36" y1="1091.67" x2="1658.04" y2="1091.67" xlink:href="#Gradiente_sem_nome_9"/>
  </defs>
  <g class="cls-9">
    <g id="Camada_1" data-name="Camada 1">
      <circle class="cls-4" cx="1556.9" cy="1031.32" r="690.81"/>
      <rect class="cls-3" x="1456.99" y="596.53" width="196.94" height="196.94" rx="1.32" ry="1.32" transform="translate(947.02 -896.32) rotate(45)"/>
      <g>
        <path class="cls-7" d="M1264.88,1478.01c-.35,13.5,10.57,26.26,24.14,26.61,14.65.38,25.12-11.82,25.47-25.33.35-13.56-9.51-25.12-24.16-25.5-13.57-.35-25.1,10.66-25.45,24.22Z"/>
        <path class="cls-7" d="M1819.64,1520.8c17.23.45,30.86-12.49,31.3-29.73.41-15.93-12.53-29.49-29.76-29.93-15.94-.41-29.57,12.46-29.98,28.39-.45,17.24,12.5,30.86,28.44,31.28Z"/>
        <path class="cls-7" d="M1689.67,1609.12c16.92.44,30.18-12.22,30.58-27.8.44-16.86-12.15-30.18-29.07-30.62-14.25-.37-28.83,12.25-29.27,29.11-.4,15.58,13.51,28.94,27.76,29.31Z"/>
        <path class="cls-7" d="M1554.11,1520.97c13.88.36,26.99-10.93,27.34-24.81.36-13.95-12.11-27.02-26-27.38-13.95-.36-25.89,12.08-26.26,26.03-.36,13.88,10.96,25.8,24.91,26.16Z"/>
        <path class="cls-7" d="M1421.85,1627.2c15.87.41,29.43-12.47,29.84-28.28s-12.44-30.71-28.3-31.12c-15.87-.41-29.46,13.75-29.87,29.62-.41,15.81,12.47,29.37,28.34,29.78Z"/>
        <g>
          <g>
            <path class="cls-14" d="M1686.16,1553.17l-18.11.07-.51-126.94-42.14-52.93-.6-150.92c5.74-.02,11.49,1.02,17.27,2.01l.56,139.49,42.99,52.88.54,136.34Z"/>
            <polygon class="cls-14" points="1476.1 1222.77 1476.76 1389.29 1434.2 1442.56 1434.67 1560.15 1434.7 1568.49 1417.43 1568.56 1417.39 1558.14 1416.89 1433.23 1458.65 1378.95 1458.04 1225.99 1476.1 1222.77"/>
            <path class="cls-14" d="M1564.22,1460.9l-18.11.07-.96-240.41c3.29-1.03,6.59-1.04,9.88-1.06,2.49,0,5.78-.02,8.24.98l.96,240.41Z"/>
            <path class="cls-14" d="M1789.62,1481.12l-54.58-68.49-.7-118.83c5.74-.02,11.53,2.04,17.29,5.11l.64,104.3,43.84,54.96,5.77,7.3-12.27,15.65Z"/>
            <path class="cls-14" d="M1314.53,1465.75l-12.35-15.55,6.56-8.36,42.52-54.29-.57-95.06c5.77-2.11,12.31-4.22,18.09-5.26l.63,109.65-48.31,61.58-6.56,7.29Z"/>
            <path class="cls-14" d="M1465.39,1598.45c-.07-17.68-10.55-33.29-27.24-38.41-4.17-2.06-9.36-3.06-13.53-3.05-3.1.01-5.18.02-8.33,1.05-18.73,4.24-33.2,20.97-33.12,40.73.09,22.87,18.87,41.54,41.78,41.45,22.92-.09,40.53-18.91,40.44-41.78ZM1401.86,1598.7c-.05-12.5,10.32-23.97,22.82-24.02,12.5-.05,22.96,11.34,23.01,23.83.05,12.46-10.33,22.92-22.83,22.97-12.5.05-22.96-10.33-23.01-22.78Z"/>
            <path class="cls-14" d="M1597.31,1493.91c-.07-18.75-12.65-35.37-30.35-39.46-4.17-1-7.27-2-11.44-1.99-4.17.02-7.32,1.05-11.48,2.08-17.66,4.24-30.1,20.95-30.02,39.71.09,22.87,18.91,41.54,41.84,41.45,22.86-.09,41.54-18.91,41.45-41.78ZM1532.77,1494.16c-.05-12.5,10.32-23.98,22.83-24.03,12.45-.05,23.97,11.34,24.02,23.84.05,12.45-11.39,22.92-23.83,22.97-12.51.05-22.97-10.33-23.02-22.78Z"/>
            <path class="cls-14" d="M1726.91,1580.85c-.08-20.83-13.38-37.4-31.62-40.48-3.06.01-6.09-.99-9.16-.97-4.06.02-9.11,1.05-13.17,2.13-15.18,6.32-26.26,20.89-26.19,39.64.09,22.92,18.38,40.53,39.68,40.44,22.34-.09,40.55-17.84,40.46-40.76ZM1664.01,1581.1c-.05-13.52,11.04-23.98,22.19-24.03,13.23-.05,23.37,10.32,23.43,23.84.05,12.5-10.01,22.96-23.24,23.01-11.15.04-22.33-10.33-22.38-22.83Z"/>
            <path class="cls-14" d="M1865.23,1491.9c-.09-22.87-18.91-40.48-41.78-40.38-8.33.03-15.64,2.1-21.83,6.29-6.23,4.19-11.44,10.46-14.52,16.73-3.13,5.2-4.12,11.45-4.1,17.7.09,22.92,17.85,41.55,40.77,41.46,22.87-.09,41.54-18.87,41.45-41.79ZM1800.7,1492.15c-.05-12.5,10.33-22.91,22.83-22.96,13.52-.05,23.98,10.27,24.03,22.77.05,13.52-10.32,23.98-23.84,24.03-12.5.05-22.96-10.33-23.01-23.85Z"/>
            <path class="cls-14" d="M1331.35,1477.16c-.02-6.25-2.09-13.56-5.26-18.73-3.08-7.26-9.41-12.46-15.61-16.61-6.32-3.07-13.54-6.2-20.86-6.17-22.87.09-41.59,18.92-41.5,41.84.09,22.87,18.96,41.54,41.84,41.45,22.86-.09,41.49-18.92,41.4-41.78ZM1266.91,1477.41c-.05-12.5,10.27-22.96,22.78-23.01,13.51-.05,22.91,10.33,22.96,22.83.05,12.45-9.26,23.97-22.77,24.03-12.51.05-22.92-11.39-22.97-23.84Z"/>
          </g>
          <circle class="cls-1" cx="1528.94" cy="1886.12" r="622.13"/>
        </g>
      </g>
      <rect class="cls-2" x="1545.27" y="1229.82" width="17.5" height="79.21"/>
      <rect class="cls-14" x="1545.27" y="1230.43" width="17.5" height="79.21"/>
      <rect class="cls-14" x="1544.96" y="1162.86" width="18.12" height="100.98"/>
      <g>
        <path class="cls-5" d="M1885.08,730.62c-124.26,0-232.36,83.94-329.43,176.79-96.29-92.71-202.91-176.79-329.81-176.79-170.27,0-308.79,138.53-308.79,308.79s138.52,308.79,308.79,308.79c125.23,0,233.16-88.27,329.7-182.83,91,89.52,198.76,182.83,329.54,182.83,170.27,0,308.79-138.53,308.79-308.79s-138.53-308.79-308.79-308.79ZM1885.08,1322.81c-121.15,0-224.13-89.38-311.48-175.3,13.36-13.35,26.53-26.72,39.47-39.89,4.44-4.52,8.88-9.02,13.29-13.5,74.61,72.31,161.65,146.15,258.72,146.15,110.76,0,200.86-90.1,200.86-200.86s-90.1-200.86-200.86-200.86c-122.11,0-230.01,109.45-334.38,215.3-102.66,104.13-208.82,211.81-324.86,211.81-124.75,0-226.25-101.5-226.25-226.25,0-116.29,88.22-212.33,201.23-224.82,4.97,9.02,14.45,15.22,25.46,15.22,16.08,0,29.17-13.08,29.17-29.16s-13.09-29.17-29.17-29.17c-12.02,0-22.34,7.31-26.81,17.7-126.41,13.23-225.28,120.38-225.28,250.23,0,138.76,112.89,251.65,251.65,251.65,126.67,0,236.62-111.53,342.95-219.39,100.69-102.12,204.8-207.73,316.28-207.73,96.75,0,175.47,78.71,175.47,175.46s-78.72,175.46-175.47,175.46c-79.46,0-154.2-55.18-240.82-138.84,82.88-83.31,162.04-154.94,240.82-154.94,65.24,0,118.32,53.08,118.32,118.32s-53.08,118.32-118.32,118.32c-39.72,0-85.65-22.52-143.24-70.34.6-2.33,1.02-4.74,1.02-7.26,0-16.08-13.08-29.17-29.17-29.17s-29.18,13.08-29.18,29.17,13.09,29.17,29.18,29.17c4.19,0,8.15-.92,11.75-2.52,63.14,52.54,113.06,76.35,159.63,76.35,79.25,0,143.72-64.47,143.72-143.72s-64.47-143.72-143.72-143.72c-99.26,0-191.97,94.3-290.11,194.12-112.63,114.55-229.08,232.99-369.12,232.99-156.26,0-283.4-127.13-283.4-283.4s127.13-283.4,283.4-283.4c117.7,0,219.28,80.31,311.55,169.07-17.94,17.57-35.51,35.27-52.73,52.64-.04.04-.08.08-.12.12-73.84-70.28-161.61-139.29-258.69-139.29-110.76,0-200.86,90.1-200.86,200.86s90.1,200.86,200.86,200.86,214.14-101.76,322.44-209.49c107.55-106.99,218.75-217.62,336.79-217.62,124.76,0,226.25,101.5,226.25,226.26,0,116.25-88.15,212.27-201.13,224.82-5.01-8.84-14.4-14.87-25.27-14.87-16.09,0-29.17,13.08-29.17,29.17s13.08,29.16,29.17,29.16c12.17,0,22.6-7.5,26.97-18.1,126.19-13.44,224.83-120.47,224.83-250.17,0-138.76-112.9-251.65-251.65-251.65-128.52,0-243.5,114.39-354.71,225.01-104.48,103.93-203.16,202.1-304.53,202.1s-175.46-78.71-175.46-175.46,78.71-175.46,175.46-175.46c88.1,0,170.71,65.26,240.79,131.93-85.12,85.53-165.74,161.85-240.79,161.85-65.25,0-118.32-53.08-118.32-118.32s53.07-118.32,118.32-118.32c42.23,0,88.72,21.22,144.94,66.29-.56,2.26-.95,4.59-.95,7.03,0,16.08,13.09,29.17,29.18,29.17s29.17-13.08,29.17-29.17-13.08-29.16-29.17-29.16c-4.28,0-8.31.98-11.98,2.64-61.18-49.09-112.87-72.2-161.19-72.2-79.25,0-143.72,64.47-143.72,143.72s64.47,143.72,143.72,143.72c90.92,0,181.23-91.09,276.85-187.52,111.35-112.3,237.57-239.59,382.38-239.59,156.27,0,283.4,127.13,283.4,283.4s-127.13,283.4-283.4,283.4ZM1216.16,800.65c0-5.58,4.55-10.12,10.13-10.12s10.13,4.54,10.13,10.12-4.55,10.12-10.13,10.12-10.13-4.54-10.13-10.12ZM1713.7,1090.26c-5.59,0-10.13-4.54-10.13-10.12s4.54-10.12,10.13-10.12,10.12,4.54,10.12,10.12-4.54,10.12-10.12,10.12ZM1895.06,1278.52c0,5.58-4.54,10.12-10.13,10.12s-10.12-4.54-10.12-10.12,4.54-10.12,10.12-10.12,10.13,4.54,10.13,10.12ZM1399.01,984.3c5.58,0,10.12,4.54,10.12,10.12s-4.54,10.12-10.12,10.12-10.13-4.54-10.13-10.12,4.54-10.12,10.13-10.12Z"/>
        <path class="cls-12" d="M1555.68,907.44c-4.59-4.42-9.19-8.81-13.83-13.17-6.13,5.88-12.19,11.79-18.24,17.71,4.63,4.36,9.24,8.74,13.82,13.14,6.05-5.92,12.11-11.82,18.25-17.68Z"/>
        <path class="cls-13" d="M1466.63,995.88c5.95-5.98,11.91-11.98,17.91-18.03-4.58-4.36-9.21-8.7-13.89-13.04-6,6.06-11.97,12.05-17.92,18.03,4.69,4.33,9.32,8.68,13.9,13.03Z"/>
        <path class="cls-10" d="M1587.24,1160.82c-4.59-4.43-9.13-8.87-13.64-13.3-5.97,5.97-11.99,11.92-18.06,17.86,4.51,4.43,9.05,8.87,13.64,13.31,6.06-5.95,12.08-11.91,18.05-17.88Z"/>
        <path class="cls-11" d="M1626.36,1094.12c4.54,4.4,9.12,8.8,13.74,13.19,6.01-6.09,11.98-12.14,17.93-18.12-4.56-4.3-9.15-8.69-13.78-13.15-5.94,5.97-11.9,12.01-17.89,18.08Z"/>
      </g>
      <g>
        <path class="cls-6" d="M789.21,2272.31h-50.95c-24.62,0-43.63-6.55-57.02-19.63-13.4-13.09-20.1-31.94-20.1-56.56v-148.18c0-24.61,6.7-43.47,20.1-56.56,13.39-13.09,32.41-19.63,57.02-19.63h50.95c24.31,0,43.24,6.62,56.8,19.86,13.55,13.25,20.33,32.02,20.33,56.33v21.97c0,6.86-3.43,10.28-10.28,10.28h-39.26c-6.55,0-9.82-3.43-9.82-10.28v-19.17c0-9.97-2.1-17.06-6.31-21.27s-11.3-6.31-21.27-6.31h-31.78c-9.66,0-16.59,2.1-20.8,6.31-4.21,4.21-6.31,11.3-6.31,21.27v142.57c0,9.98,2.1,17.06,6.31,21.27,4.21,4.21,11.14,6.31,20.8,6.31h31.78c9.97,0,17.06-2.1,21.27-6.31s6.31-11.29,6.31-21.27v-19.17c0-6.85,3.27-10.28,9.82-10.28h39.26c6.85,0,10.28,3.43,10.28,10.28v21.97c0,24.31-6.78,43.08-20.33,56.33-13.56,13.25-32.49,19.87-56.8,19.87Z"/>
        <path class="cls-6" d="M1026.67,2272.31h-41.6c-24.62,0-43.63-6.55-57.02-19.63-13.4-13.09-20.1-31.94-20.1-56.56v-86.01c0-24.61,6.7-43.47,20.1-56.56,13.39-13.09,32.41-19.63,57.02-19.63h41.6c24.31,0,43.24,6.62,56.79,19.86,13.55,13.25,20.33,32.02,20.33,56.33v86.01c0,24.31-6.78,43.08-20.33,56.33-13.56,13.25-32.49,19.87-56.79,19.87ZM993.95,2221.36h23.84c9.97,0,17.06-2.02,21.27-6.08,4.21-4.05,6.31-11.06,6.31-21.03v-82.27c0-9.97-2.1-16.98-6.31-21.04-4.21-4.05-11.3-6.07-21.27-6.07h-23.84c-9.98,0-16.99,2.03-21.03,6.07-4.05,4.06-6.07,11.07-6.07,21.04v82.27c0,9.98,2.02,16.99,6.07,21.03,4.05,4.06,11.06,6.08,21.03,6.08Z"/>
        <path class="cls-6" d="M1200.08,2272.31h-39.73c-6.55,0-9.81-3.27-9.81-9.82v-218.76c0-6.54,3.27-9.81,9.81-9.81h39.73c6.55,0,9.82,3.27,9.82,9.81v15.43h1.87c6.85-16.83,22.13-25.24,45.81-25.24h14.96c48.92,0,73.39,25.4,73.39,76.19v152.38c0,6.55-3.43,9.82-10.28,9.82h-39.26c-6.55,0-9.81-3.27-9.81-9.82v-149.58c0-9.97-2.11-17.06-6.31-21.27s-11.3-6.31-21.27-6.31h-16.83c-21.5,0-32.25,11.85-32.25,35.52v141.63c0,6.55-3.27,9.82-9.82,9.82Z"/>
        <path class="cls-6" d="M1400.14,2085.34h-18.7c-3.74,0-6.31-.62-7.71-1.87-1.4-1.24-2.1-3.74-2.1-7.48v-32.26c0-6.54,3.27-9.81,9.81-9.81h18.7c3.42,0,5.14-1.71,5.14-5.14v-44.4c0-6.55,3.43-9.81,10.28-9.81h39.26c6.55,0,9.81,3.27,9.81,9.81v44.4c0,3.43,1.87,5.14,5.61,5.14h36.46c6.55,0,9.82,3.27,9.82,9.81v32.26c0,3.43-.7,5.84-2.1,7.24-1.4,1.4-3.97,2.1-7.71,2.1h-36.46c-3.74,0-5.61,1.72-5.61,5.14v103.3c0,9.66,2.18,16.59,6.55,20.8,4.36,4.21,11.52,6.31,21.5,6.31h18.69c6.55,0,9.82,3.27,9.82,9.81v32.26c0,3.43-.7,5.84-2.1,7.24-1.4,1.4-3.97,2.1-7.71,2.1h-28.51c-24.62,0-43.71-6.55-57.26-19.63-13.56-13.09-20.33-31.78-20.33-56.09v-106.11c0-3.42-1.72-5.14-5.14-5.14Z"/>
        <path class="cls-6" d="M1562.33,2262.49v-218.76c0-6.54,3.11-9.81,9.35-9.81h40.2c6.55,0,9.81,3.27,9.81,9.81v218.76c0,4.06-.7,6.71-2.1,7.95-1.4,1.25-3.82,1.87-7.24,1.87h-40.2c-6.55,0-9.82-3.27-9.82-9.82ZM1607.68,1943.71h45.81c3.42,0,5.61.93,6.54,2.8.94,1.87.31,4.06-1.87,6.55l-37.86,44.88c-3.43,4.05-7.79,6.07-13.09,6.07h-29.92c-6.24,0-7.79-3.27-4.67-9.81l21.03-41.6c2.81-5.92,7.48-8.88,14.02-8.88Z"/>
        <path class="cls-6" d="M1725,2272.31h-39.73c-6.55,0-9.81-3.27-9.81-9.82v-218.76c0-6.54,3.27-9.81,9.81-9.81h39.73c6.55,0,9.82,3.27,9.82,9.81v15.43h1.87c6.85-16.83,22.13-25.24,45.81-25.24h14.96c48.92,0,73.39,25.4,73.39,76.19v152.38c0,6.55-3.43,9.82-10.28,9.82h-39.26c-6.55,0-9.81-3.27-9.81-9.82v-149.58c0-9.97-2.11-17.06-6.31-21.27-4.21-4.21-11.3-6.31-21.27-6.31h-16.83c-21.5,0-32.25,11.85-32.25,35.52v141.63c0,6.55-3.27,9.82-9.82,9.82Z"/>
        <path class="cls-6" d="M2005.92,2272.31h-15.43c-24,0-42.15-6.55-54.46-19.63-12.31-13.09-18.46-31.94-18.46-56.56v-152.38c0-6.54,3.27-9.81,9.82-9.81h39.73c6.54,0,9.81,3.27,9.81,9.81v149.58c0,9.98,2.1,17.06,6.31,21.27,4.21,4.21,11.14,6.31,20.8,6.31h17.3c21.5,0,32.25-11.84,32.25-35.52v-141.63c0-6.54,3.27-9.81,9.81-9.81h39.27c6.85,0,10.28,3.27,10.28,9.81v218.76c0,6.55-3.43,9.82-10.28,9.82h-39.27c-6.54,0-9.81-3.27-9.81-9.82v-15.42h-1.87c-3.43,8.41-9.51,14.72-18.23,18.93-8.73,4.21-17.93,6.31-27.58,6.31Z"/>
        <path class="cls-6" d="M2278.43,2272.31h-41.6c-24.62,0-43.63-6.55-57.02-19.63-13.4-13.09-20.1-31.94-20.1-56.56v-86.01c0-24.61,6.7-43.47,20.1-56.56,13.39-13.09,32.41-19.63,57.02-19.63h41.6c24.31,0,43.24,6.62,56.79,19.86,13.55,13.25,20.33,32.02,20.33,56.33v86.01c0,24.31-6.78,43.08-20.33,56.33-13.56,13.25-32.49,19.87-56.79,19.87ZM2245.71,2221.36h23.84c9.97,0,17.06-2.02,21.27-6.08,4.21-4.05,6.31-11.06,6.31-21.03v-82.27c0-9.97-2.1-16.98-6.31-21.04-4.21-4.05-11.3-6.07-21.27-6.07h-23.84c-9.98,0-16.99,2.03-21.03,6.07-4.05,4.06-6.07,11.07-6.07,21.04v82.27c0,9.98,2.02,16.99,6.07,21.03,4.05,4.06,11.06,6.08,21.03,6.08Z"/>
        <path class="cls-8" d="M771.26,2610.3h-16.18c-3.36,0-5.03-1.67-5.03-5.04v-199.92c0-2.16-1.2-3.24-3.6-3.24h-48.9c-3.6,0-5.39-1.67-5.39-5.03v-12.95c0-3.35,1.8-5.03,5.39-5.03h131.24c3.6,0,5.39,1.68,5.39,5.03v12.95c0,3.36-1.8,5.03-5.39,5.03h-48.9c-2.4,0-3.6,1.08-3.6,3.24v199.92c0,3.36-1.68,5.04-5.04,5.04Z"/>
        <path class="cls-8" d="M1001.37,2610.3h-76.23c-16.54,0-29.55-4.67-39.01-14.02-9.47-9.35-14.2-22.41-14.2-39.19v-76.95c0-16.77,4.73-29.84,14.2-39.19,9.47-9.35,22.47-14.02,39.01-14.02h30.2c16.54,0,29.48,4.67,38.84,14.02,9.35,9.35,14.02,22.42,14.02,39.19v45.67c0,3.6-1.68,5.39-5.03,5.39h-101.76c-2.4,0-3.6,1.08-3.6,3.24v21.93c0,20.85,10.07,31.28,30.2,31.28h73.35c3.35,0,5.03,1.68,5.03,5.03v12.95c0,3.12-1.68,4.67-5.03,4.67ZM901.41,2512.14h77.67c2.39,0,3.6-1.2,3.6-3.6v-27.69c0-20.61-10.07-30.92-30.2-30.92h-24.45c-20.13,0-30.2,10.31-30.2,30.92v27.69c0,2.4,1.2,3.6,3.6,3.6Z"/>
        <path class="cls-8" d="M1170,2592.32v13.3c0,3.12-1.68,4.67-5.03,4.67h-52.14c-16.54,0-29.55-4.67-39.01-14.02-9.47-9.35-14.2-22.41-14.2-39.19v-76.95c0-16.77,4.73-29.84,14.2-39.19,9.47-9.35,22.47-14.02,39.01-14.02h52.14c3.35,0,5.03,1.68,5.03,5.04v13.3c0,3.12-1.68,4.68-5.03,4.68h-49.26c-19.9,0-29.84,10.43-29.84,31.28v74.79c0,20.85,9.94,31.28,29.84,31.28h49.26c3.35,0,5.03,1.68,5.03,5.04Z"/>
        <path class="cls-8" d="M1238.67,2610.3h-16.18c-3.36,0-5.03-1.67-5.03-5.04v-173.31c0-3.36,1.67-5.04,5.03-5.04h16.18c3.35,0,5.04,1.68,5.04,5.04v14.02h1.44c5.99-12.7,18.22-19.06,36.68-19.06h20.14c16.3,0,29,4.67,38.11,14.02,9.11,9.35,13.66,22.42,13.66,39.19v125.13c0,3.36-1.68,5.04-5.03,5.04h-16.18c-3.36,0-5.04-1.67-5.04-5.04v-124.05c0-20.85-10.07-31.28-30.2-31.28h-20.13c-10.79,0-19.06,2.88-24.81,8.63-5.75,5.76-8.63,13.9-8.63,24.45v122.25c0,3.36-1.68,5.04-5.04,5.04Z"/>
        <path class="cls-8" d="M1492.88,2610.3h-30.92c-16.54,0-29.55-4.67-39.01-14.02-9.47-9.35-14.2-22.41-14.2-39.19v-76.95c0-16.77,4.73-29.84,14.2-39.19,9.47-9.35,22.47-14.02,39.01-14.02h30.92c16.54,0,29.54,4.67,39.01,14.02,9.47,9.35,14.2,22.42,14.2,39.19v76.95c0,16.78-4.73,29.84-14.2,39.19-9.47,9.35-22.47,14.02-39.01,14.02ZM1464.84,2587.29h25.17c20.13,0,30.2-10.3,30.2-30.92v-75.51c0-20.61-10.07-30.92-30.2-30.92h-25.17c-20.13,0-30.2,10.31-30.2,30.92v75.51c0,20.62,10.07,30.92,30.2,30.92Z"/>
        <path class="cls-8" d="M1625.92,2610.3h-16.18c-3.36,0-5.03-1.67-5.03-5.04v-242.71c0-3.35,1.67-5.03,5.03-5.03h16.18c3.35,0,5.04,1.68,5.04,5.03v242.71c0,3.36-1.68,5.04-5.04,5.04Z"/>
        <path class="cls-8" d="M1773.7,2610.3h-30.92c-16.54,0-29.55-4.67-39.01-14.02-9.47-9.35-14.2-22.41-14.2-39.19v-76.95c0-16.77,4.73-29.84,14.2-39.19,9.47-9.35,22.47-14.02,39.01-14.02h30.92c16.54,0,29.54,4.67,39.01,14.02,9.47,9.35,14.2,22.42,14.2,39.19v76.95c0,16.78-4.73,29.84-14.2,39.19-9.47,9.35-22.47,14.02-39.01,14.02ZM1745.65,2587.29h25.17c20.13,0,30.2-10.3,30.2-30.92v-75.51c0-20.61-10.07-30.92-30.2-30.92h-25.17c-20.13,0-30.2,10.31-30.2,30.92v75.51c0,20.62,10.07,30.92,30.2,30.92Z"/>
        <path class="cls-8" d="M1953.12,2600.59h-20.14c-16.3,0-29-4.67-38.11-14.02-9.11-9.35-13.66-22.41-13.66-39.19v-67.24c0-16.77,4.73-29.84,14.2-39.19,9.47-9.35,22.47-14.02,39.01-14.02h78.03c3.35,0,5.03,1.68,5.03,5.04v178.34c0,16.54-4.73,29.54-14.2,39.01-9.47,9.47-22.47,14.2-39.01,14.2h-66.16c-3.6,0-5.39-1.68-5.39-5.03v-13.3c0-3.36,1.8-5.04,5.39-5.04h62.92c20.13,0,30.2-10.31,30.2-30.92v-27.69h-1.44c-6.24,12.71-18.46,19.06-36.68,19.06ZM1991.24,2544.5v-91.33c0-2.16-1.2-3.23-3.6-3.23h-49.98c-20.14,0-30.2,10.43-30.2,31.28v65.08c0,20.85,10.07,31.28,30.2,31.28h20.13c10.79,0,19.06-2.88,24.81-8.63,5.75-5.75,8.63-13.9,8.63-24.45Z"/>
        <path class="cls-8" d="M2079.69,2396.72v-33.8c0-3.35,1.56-5.04,4.67-5.04h16.54c3.35,0,5.04,1.68,5.04,5.04v33.8c0,3.36-1.68,5.04-5.04,5.04h-16.54c-3.12,0-4.67-1.67-4.67-5.04ZM2079.69,2605.27v-173.31c0-3.36,1.56-5.04,4.67-5.04h16.54c3.35,0,5.04,1.68,5.04,5.04v173.31c0,3.36-1.68,5.04-5.04,5.04h-16.18c-3.36,0-5.03-1.67-5.03-5.04Z"/>
        <path class="cls-8" d="M2236.46,2610.3h-18.7c-16.54,0-29.55-4.67-39.01-14.02-9.47-9.35-14.2-22.41-14.2-39.19v-76.95c0-16.77,4.73-29.84,14.2-39.19,9.47-9.35,22.47-14.02,39.01-14.02h78.03c3.35,0,5.03,1.68,5.03,5.04v173.31c0,3.36-1.68,5.04-5.03,5.04h-16.18c-3.36,0-5.04-1.67-5.04-5.04v-14.02h-1.44c-5.99,12.71-18.22,19.06-36.67,19.06ZM2274.57,2554.21v-101.04c0-2.16-1.2-3.23-3.6-3.23h-50.34c-19.9,0-29.84,10.43-29.84,31.28v74.79c0,20.85,9.94,31.28,29.84,31.28h20.5c10.79,0,19.06-2.88,24.81-8.63s8.63-13.9,8.63-24.45Z"/>
      </g>
    </g>
  </g>
</svg>