<?xml version="1.0" encoding="UTF-8"?>
<svg id="Camada_1" data-name="Camada 1" xmlns="http://www.w3.org/2000/svg" viewBox="0 0 3000 3000">
  <defs>
    <style>
      .cls-1 {
        fill: #7a7a7a;
      }

      .cls-2 {
        fill: #5aa8ff;
      }
    </style>
  </defs>
  <path class="cls-2" d="M636.89,1548.92h-59.92c-28.95,0-51.31-7.7-67.07-23.09-15.76-15.39-23.64-37.56-23.64-66.52v-174.27c0-28.95,7.88-51.13,23.64-66.52,15.75-15.39,38.11-23.09,67.07-23.09h59.92c28.59,0,50.85,7.79,66.79,23.36,15.94,15.58,23.91,37.66,23.91,66.24v25.84c0,8.07-4.04,12.09-12.09,12.09h-46.18c-7.7,0-11.54-4.03-11.54-12.09v-22.54c0-11.72-2.47-20.06-7.42-25.01-4.95-4.95-13.29-7.42-25.01-7.42h-37.38c-11.36,0-19.51,2.47-24.46,7.42-4.95,4.95-7.42,13.29-7.42,25.01v167.67c0,11.73,2.47,20.07,7.42,25.01,4.95,4.95,13.1,7.42,24.46,7.42h37.38c11.72,0,20.07-2.47,25.01-7.42s7.42-13.28,7.42-25.01v-22.54c0-8.06,3.85-12.09,11.54-12.09h46.18c8.06,0,12.09,4.04,12.09,12.09v25.84c0,28.59-7.97,50.67-23.91,66.24-15.94,15.58-38.21,23.36-66.79,23.36Z"/>
  <path class="cls-2" d="M916.15,1548.92h-48.93c-28.96,0-51.31-7.7-67.07-23.09-15.76-15.39-23.64-37.56-23.64-66.52v-101.15c0-28.95,7.88-51.13,23.64-66.52,15.75-15.39,38.11-23.09,67.07-23.09h48.93c28.59,0,50.85,7.79,66.79,23.36,15.94,15.58,23.91,37.66,23.91,66.24v101.15c0,28.59-7.97,50.67-23.91,66.24-15.94,15.58-38.21,23.36-66.79,23.36ZM877.67,1489h28.04c11.72,0,20.07-2.38,25.01-7.15,4.95-4.76,7.42-13.01,7.42-24.74v-96.75c0-11.72-2.47-19.97-7.42-24.74-4.95-4.76-13.29-7.15-25.01-7.15h-28.04c-11.73,0-19.98,2.39-24.74,7.15-4.77,4.77-7.15,13.01-7.15,24.74v96.75c0,11.73,2.38,19.98,7.15,24.74,4.76,4.77,13,7.15,24.74,7.15Z"/>
  <path class="cls-2" d="M1120.1,1548.92h-46.73c-7.7,0-11.54-3.85-11.54-11.54v-257.28c0-7.7,3.85-11.54,11.54-11.54h46.73c7.7,0,11.54,3.85,11.54,11.54v18.14h2.2c8.06-19.79,26.02-29.69,53.87-29.69h17.59c57.53,0,86.31,29.87,86.31,89.61v179.21c0,7.7-4.04,11.54-12.09,11.54h-46.18c-7.7,0-11.54-3.85-11.54-11.54v-175.92c0-11.72-2.47-20.06-7.42-25.01-4.95-4.95-13.29-7.42-25.01-7.42h-19.79c-25.29,0-37.93,13.93-37.93,41.78v166.57c0,7.7-3.85,11.54-11.54,11.54Z"/>
  <path class="cls-2" d="M1355.38,1329.03h-21.99c-4.4,0-7.42-.73-9.07-2.2-1.65-1.46-2.47-4.4-2.47-8.8v-37.93c0-7.7,3.85-11.54,11.54-11.54h21.99c4.03,0,6.05-2.01,6.05-6.05v-52.23c0-7.7,4.03-11.54,12.09-11.54h46.18c7.7,0,11.54,3.85,11.54,11.54v52.23c0,4.04,2.2,6.05,6.6,6.05h42.88c7.7,0,11.54,3.85,11.54,11.54v37.93c0,4.04-.82,6.87-2.47,8.52-1.65,1.65-4.67,2.47-9.07,2.47h-42.88c-4.4,0-6.6,2.02-6.6,6.05v121.49c0,11.36,2.56,19.52,7.7,24.46,5.13,4.95,13.55,7.42,25.29,7.42h21.99c7.7,0,11.54,3.85,11.54,11.54v37.93c0,4.04-.82,6.87-2.47,8.52s-4.67,2.47-9.07,2.47h-33.53c-28.96,0-51.4-7.7-67.34-23.09-15.94-15.39-23.91-37.38-23.91-65.97v-124.79c0-4.03-2.02-6.05-6.05-6.05Z"/>
  <path class="cls-2" d="M1546.14,1537.38v-257.28c0-7.7,3.66-11.54,10.99-11.54h47.28c7.7,0,11.54,3.85,11.54,11.54v257.28c0,4.77-.82,7.88-2.47,9.35-1.65,1.47-4.49,2.2-8.52,2.2h-47.28c-7.7,0-11.54-3.85-11.54-11.54ZM1599.46,1162.46h53.87c4.03,0,6.6,1.1,7.7,3.3,1.1,2.2.36,4.77-2.2,7.7l-44.53,52.77c-4.04,4.77-9.16,7.15-15.39,7.15h-35.18c-7.34,0-9.16-3.85-5.5-11.54l24.74-48.93c3.3-6.96,8.8-10.45,16.49-10.45Z"/>
  <path class="cls-2" d="M1737.44,1548.92h-46.73c-7.7,0-11.54-3.85-11.54-11.54v-257.28c0-7.7,3.85-11.54,11.54-11.54h46.73c7.7,0,11.54,3.85,11.54,11.54v18.14h2.2c8.06-19.79,26.02-29.69,53.87-29.69h17.59c57.53,0,86.31,29.87,86.31,89.61v179.21c0,7.7-4.04,11.54-12.09,11.54h-46.18c-7.7,0-11.54-3.85-11.54-11.54v-175.92c0-11.72-2.47-20.06-7.42-25.01-4.95-4.95-13.29-7.42-25.01-7.42h-19.79c-25.29,0-37.93,13.93-37.93,41.78v166.57c0,7.7-3.85,11.54-11.54,11.54Z"/>
  <path class="cls-2" d="M2067.83,1548.92h-18.14c-28.22,0-49.57-7.7-64.04-23.09-14.48-15.39-21.71-37.56-21.71-66.52v-179.21c0-7.7,3.85-11.54,11.54-11.54h46.73c7.7,0,11.54,3.85,11.54,11.54v175.92c0,11.73,2.47,20.07,7.42,25.01,4.95,4.95,13.1,7.42,24.46,7.42h20.34c25.29,0,37.93-13.92,37.93-41.78v-166.57c0-7.7,3.85-11.54,11.54-11.54h46.18c8.06,0,12.09,3.85,12.09,11.54v257.28c0,7.7-4.04,11.54-12.09,11.54h-46.18c-7.7,0-11.54-3.85-11.54-11.54v-18.14h-2.2c-4.04,9.9-11.18,17.32-21.44,22.27-10.26,4.95-21.08,7.42-32.43,7.42Z"/>
  <path class="cls-2" d="M2388.32,1548.92h-48.93c-28.96,0-51.31-7.7-67.07-23.09-15.76-15.39-23.64-37.56-23.64-66.52v-101.15c0-28.95,7.88-51.13,23.64-66.52,15.75-15.39,38.11-23.09,67.07-23.09h48.93c28.59,0,50.85,7.79,66.79,23.36,15.94,15.58,23.91,37.66,23.91,66.24v101.15c0,28.59-7.97,50.67-23.91,66.24-15.94,15.58-38.21,23.36-66.79,23.36ZM2349.84,1489h28.04c11.72,0,20.07-2.38,25.01-7.15,4.95-4.76,7.42-13.01,7.42-24.74v-96.75c0-11.72-2.47-19.97-7.42-24.74-4.95-4.76-13.29-7.15-25.01-7.15h-28.04c-11.73,0-19.98,2.39-24.74,7.15-4.77,4.77-7.15,13.01-7.15,24.74v96.75c0,11.73,2.38,19.98,7.15,24.74,4.76,4.77,13,7.15,24.74,7.15Z"/>
  <path class="cls-1" d="M615.77,1946.42h-19.03c-3.95,0-5.92-1.97-5.92-5.92v-235.12c0-2.54-1.41-3.81-4.23-3.81h-57.51c-4.23,0-6.34-1.97-6.34-5.92v-15.22c0-3.94,2.11-5.92,6.34-5.92h154.35c4.23,0,6.34,1.98,6.34,5.92v15.22c0,3.95-2.11,5.92-6.34,5.92h-57.51c-2.82,0-4.23,1.27-4.23,3.81v235.12c0,3.95-1.98,5.92-5.92,5.92Z"/>
  <path class="cls-1" d="M886.4,1946.42h-89.65c-19.45,0-34.75-5.5-45.88-16.49-11.14-10.99-16.7-26.36-16.7-46.09v-90.49c0-19.73,5.56-35.1,16.7-46.09,11.13-10.99,26.43-16.49,45.88-16.49h35.52c19.45,0,34.68,5.5,45.67,16.49,10.99,10.99,16.49,26.36,16.49,46.09v53.7c0,4.23-1.98,6.34-5.92,6.34h-119.67c-2.82,0-4.23,1.27-4.23,3.81v25.79c0,24.53,11.84,36.79,35.52,36.79h86.27c3.95,0,5.92,1.98,5.92,5.92v15.22c0,3.67-1.98,5.5-5.92,5.5ZM768.84,1830.98h91.34c2.81,0,4.23-1.41,4.23-4.23v-32.56c0-24.24-11.84-36.37-35.52-36.37h-28.76c-23.68,0-35.52,12.12-35.52,36.37v32.56c0,2.82,1.41,4.23,4.23,4.23Z"/>
  <path class="cls-1" d="M1084.72,1925.28v15.65c0,3.67-1.98,5.5-5.92,5.5h-61.32c-19.45,0-34.75-5.5-45.88-16.49-11.14-10.99-16.7-26.36-16.7-46.09v-90.49c0-19.73,5.56-35.1,16.7-46.09,11.13-10.99,26.43-16.49,45.88-16.49h61.32c3.95,0,5.92,1.98,5.92,5.92v15.65c0,3.67-1.98,5.5-5.92,5.5h-57.93c-23.4,0-35.1,12.26-35.1,36.79v87.96c0,24.53,11.7,36.79,35.1,36.79h57.93c3.95,0,5.92,1.98,5.92,5.92Z"/>
  <path class="cls-1" d="M1165.49,1946.42h-19.03c-3.95,0-5.92-1.97-5.92-5.92v-203.83c0-3.94,1.97-5.92,5.92-5.92h19.03c3.95,0,5.92,1.98,5.92,5.92v16.49h1.69c7.04-14.94,21.42-22.41,43.13-22.41h23.68c19.17,0,34.11,5.5,44.82,16.49,10.71,10.99,16.07,26.36,16.07,46.09v147.16c0,3.95-1.98,5.92-5.92,5.92h-19.03c-3.95,0-5.92-1.97-5.92-5.92v-145.89c0-24.53-11.84-36.79-35.52-36.79h-23.68c-12.69,0-22.41,3.38-29.18,10.15s-10.15,16.35-10.15,28.76v143.78c0,3.95-1.98,5.92-5.92,5.92Z"/>
  <path class="cls-1" d="M1464.46,1946.42h-36.37c-19.45,0-34.75-5.5-45.88-16.49-11.14-10.99-16.7-26.36-16.7-46.09v-90.49c0-19.73,5.56-35.1,16.7-46.09,11.13-10.99,26.43-16.49,45.88-16.49h36.37c19.45,0,34.74,5.5,45.88,16.49,11.13,10.99,16.7,26.36,16.7,46.09v90.49c0,19.74-5.57,35.1-16.7,46.09-11.14,10.99-26.43,16.49-45.88,16.49ZM1431.47,1919.36h29.6c23.68,0,35.52-12.12,35.52-36.37v-88.8c0-24.24-11.84-36.37-35.52-36.37h-29.6c-23.68,0-35.52,12.12-35.52,36.37v88.8c0,24.25,11.84,36.37,35.52,36.37Z"/>
  <path class="cls-1" d="M1620.92,1946.42h-19.03c-3.95,0-5.92-1.97-5.92-5.92v-285.44c0-3.94,1.97-5.92,5.92-5.92h19.03c3.94,0,5.92,1.98,5.92,5.92v285.44c0,3.95-1.98,5.92-5.92,5.92Z"/>
  <path class="cls-1" d="M1794.72,1946.42h-36.37c-19.45,0-34.75-5.5-45.88-16.49-11.14-10.99-16.7-26.36-16.7-46.09v-90.49c0-19.73,5.56-35.1,16.7-46.09,11.13-10.99,26.43-16.49,45.88-16.49h36.37c19.45,0,34.74,5.5,45.88,16.49,11.13,10.99,16.7,26.36,16.7,46.09v90.49c0,19.74-5.57,35.1-16.7,46.09-11.14,10.99-26.43,16.49-45.88,16.49ZM1761.73,1919.36h29.6c23.68,0,35.52-12.12,35.52-36.37v-88.8c0-24.24-11.84-36.37-35.52-36.37h-29.6c-23.68,0-35.52,12.12-35.52,36.37v88.8c0,24.25,11.84,36.37,35.52,36.37Z"/>
  <path class="cls-1" d="M2005.73,1935.01h-23.68c-19.18,0-34.11-5.5-44.82-16.49-10.72-10.99-16.07-26.36-16.07-46.09v-79.08c0-19.73,5.56-35.1,16.7-46.09,11.13-10.99,26.43-16.49,45.88-16.49h91.76c3.95,0,5.92,1.98,5.92,5.92v209.75c0,19.45-5.57,34.74-16.7,45.88-11.14,11.13-26.43,16.7-45.88,16.7h-77.81c-4.23,0-6.34-1.98-6.34-5.92v-15.65c0-3.95,2.11-5.92,6.34-5.92h74c23.68,0,35.52-12.12,35.52-36.37v-32.56h-1.69c-7.33,14.95-21.71,22.41-43.13,22.41ZM2050.55,1869.04v-107.41c0-2.54-1.41-3.81-4.23-3.81h-58.78c-23.68,0-35.52,12.26-35.52,36.79v76.54c0,24.53,11.84,36.79,35.52,36.79h23.68c12.69,0,22.41-3.38,29.18-10.15,6.77-6.77,10.15-16.35,10.15-28.76Z"/>
  <path class="cls-1" d="M2154.58,1695.24v-39.75c0-3.94,1.83-5.92,5.5-5.92h19.45c3.94,0,5.92,1.98,5.92,5.92v39.75c0,3.95-1.98,5.92-5.92,5.92h-19.45c-3.67,0-5.5-1.97-5.5-5.92ZM2154.58,1940.5v-203.83c0-3.94,1.83-5.92,5.5-5.92h19.45c3.94,0,5.92,1.98,5.92,5.92v203.83c0,3.95-1.98,5.92-5.92,5.92h-19.03c-3.95,0-5.92-1.97-5.92-5.92Z"/>
  <path class="cls-1" d="M2338.95,1946.42h-21.99c-19.45,0-34.75-5.5-45.88-16.49-11.14-10.99-16.7-26.36-16.7-46.09v-90.49c0-19.73,5.56-35.1,16.7-46.09,11.13-10.99,26.43-16.49,45.88-16.49h91.76c3.94,0,5.92,1.98,5.92,5.92v203.83c0,3.95-1.98,5.92-5.92,5.92h-19.03c-3.95,0-5.92-1.97-5.92-5.92v-16.49h-1.69c-7.05,14.95-21.43,22.41-43.13,22.41ZM2383.77,1880.46v-118.83c0-2.54-1.41-3.81-4.23-3.81h-59.2c-23.4,0-35.1,12.26-35.1,36.79v87.96c0,24.53,11.7,36.79,35.1,36.79h24.1c12.69,0,22.41-3.38,29.18-10.15,6.77-6.77,10.15-16.35,10.15-28.76Z"/>
</svg>